<?xml version="1.0" encoding="UTF-8" standalone="no"?>
<!DOCTYPE svg PUBLIC "-//W3C//DTD SVG 1.1//EN"
 "http://www.w3.org/Graphics/SVG/1.1/DTD/svg11.dtd">
<!-- Generated by graphviz version 2.43.0 (0)
 -->
<!-- Title: RAG_Information_Flow Pages: 1 -->
<svg width="322pt" height="685pt"
 viewBox="0.00 0.00 321.96 685.22" xmlns="http://www.w3.org/2000/svg" xmlns:xlink="http://www.w3.org/1999/xlink">
<g id="graph0" class="graph" transform="scale(1 1) rotate(0) translate(4 681.22)">
<title>RAG_Information_Flow</title>
<polygon fill="white" stroke="transparent" points="-4,4 -4,-681.22 317.96,-681.22 317.96,4 -4,4"/>
<!-- A -->
<g id="node1" class="node">
<title>A</title>
<ellipse fill="lightgrey" stroke="lightgrey" cx="156.98" cy="-650.35" rx="98.08" ry="26.74"/>
<text text-anchor="middle" x="156.98" y="-654.15" font-family="Times,serif" font-size="14.00">MPI Mining Data</text>
<text text-anchor="middle" x="156.98" y="-639.15" font-family="Times,serif" font-size="14.00">(Raw Data Files)</text>
</g>
<!-- B -->
<g id="node2" class="node">
<title>B</title>
<polygon fill="lightblue" stroke="lightblue" points="274.98,-587.48 38.98,-587.48 38.98,-549.48 274.98,-549.48 274.98,-587.48"/>
<text text-anchor="middle" x="156.98" y="-572.28" font-family="Times,serif" font-size="14.00">Data Loading &amp; Preprocessing</text>
<text text-anchor="middle" x="156.98" y="-557.28" font-family="Times,serif" font-size="14.00">(PDF, CSV, etc.)</text>
</g>
<!-- A&#45;&gt;B -->
<g id="edge1" class="edge">
<title>A&#45;&gt;B</title>
<path fill="none" stroke="black" d="M156.98,-623.2C156.98,-615.01 156.98,-605.94 156.98,-597.62"/>
<polygon fill="black" stroke="black" points="160.48,-597.6 156.98,-587.6 153.48,-597.6 160.48,-597.6"/>
</g>
<!-- C -->
<g id="node3" class="node">
<title>C</title>
<polygon fill="lightyellow" stroke="lightyellow" points="264.48,-513.48 49.48,-513.48 49.48,-475.48 264.48,-475.48 264.48,-513.48"/>
<text text-anchor="middle" x="156.98" y="-498.28" font-family="Times,serif" font-size="14.00">Data Embedding</text>
<text text-anchor="middle" x="156.98" y="-483.28" font-family="Times,serif" font-size="14.00">(HuggingFace Embeddings)</text>
</g>
<!-- B&#45;&gt;C -->
<g id="edge2" class="edge">
<title>B&#45;&gt;C</title>
<path fill="none" stroke="black" d="M156.98,-549.31C156.98,-541.61 156.98,-532.45 156.98,-523.9"/>
<polygon fill="black" stroke="black" points="160.48,-523.89 156.98,-513.89 153.48,-523.89 160.48,-523.89"/>
</g>
<!-- D -->
<g id="node4" class="node">
<title>D</title>
<ellipse fill="lightgreen" stroke="lightgreen" cx="156.98" cy="-412.61" rx="145.83" ry="26.74"/>
<text text-anchor="middle" x="156.98" y="-416.41" font-family="Times,serif" font-size="14.00">FAISS Vector Store</text>
<text text-anchor="middle" x="156.98" y="-401.41" font-family="Times,serif" font-size="14.00">(Store &amp; Retrieve Vectors)</text>
</g>
<!-- C&#45;&gt;D -->
<g id="edge3" class="edge">
<title>C&#45;&gt;D</title>
<path fill="none" stroke="black" d="M156.98,-475.36C156.98,-467.75 156.98,-458.62 156.98,-449.74"/>
<polygon fill="black" stroke="black" points="160.48,-449.54 156.98,-439.54 153.48,-449.54 160.48,-449.54"/>
</g>
<!-- E -->
<g id="node5" class="node">
<title>E</title>
<polygon fill="lightpink" stroke="lightpink" points="238.98,-349.74 74.98,-349.74 74.98,-311.74 238.98,-311.74 238.98,-349.74"/>
<text text-anchor="middle" x="156.98" y="-334.54" font-family="Times,serif" font-size="14.00">Retriever Setup</text>
<text text-anchor="middle" x="156.98" y="-319.54" font-family="Times,serif" font-size="14.00">(Query Vector Store)</text>
</g>
<!-- D&#45;&gt;E -->
<g id="edge4" class="edge">
<title>D&#45;&gt;E</title>
<path fill="none" stroke="black" d="M156.98,-385.46C156.98,-377.27 156.98,-368.2 156.98,-359.88"/>
<polygon fill="black" stroke="black" points="160.48,-359.86 156.98,-349.86 153.48,-359.86 160.48,-359.86"/>
</g>
<!-- G -->
<g id="node7" class="node">
<title>G</title>
<polygon fill="lightcyan" stroke="lightcyan" points="272.98,-275.74 40.98,-275.74 40.98,-237.74 272.98,-237.74 272.98,-275.74"/>
<text text-anchor="middle" x="156.98" y="-260.54" font-family="Times,serif" font-size="14.00">Prompt Handling</text>
<text text-anchor="middle" x="156.98" y="-245.54" font-family="Times,serif" font-size="14.00">(LangChain Prompt Template)</text>
</g>
<!-- E&#45;&gt;G -->
<g id="edge5" class="edge">
<title>E&#45;&gt;G</title>
<path fill="none" stroke="black" d="M156.98,-311.57C156.98,-303.87 156.98,-294.71 156.98,-286.16"/>
<polygon fill="black" stroke="black" points="160.48,-286.15 156.98,-276.15 153.48,-286.15 160.48,-286.15"/>
</g>
<!-- F -->
<g id="node6" class="node">
<title>F</title>
<polygon fill="lightcoral" stroke="lightcoral" points="235.98,-201.74 77.98,-201.74 77.98,-163.74 235.98,-163.74 235.98,-201.74"/>
<text text-anchor="middle" x="156.98" y="-186.54" font-family="Times,serif" font-size="14.00">HuggingFace LLM</text>
<text text-anchor="middle" x="156.98" y="-171.54" font-family="Times,serif" font-size="14.00">(Generate Answers)</text>
</g>
<!-- H -->
<g id="node8" class="node">
<title>H</title>
<ellipse fill="lightgrey" stroke="lightgrey" cx="156.98" cy="-100.87" rx="156.96" ry="26.74"/>
<text text-anchor="middle" x="156.98" y="-104.67" font-family="Times,serif" font-size="14.00">RAG Chain Execution</text>
<text text-anchor="middle" x="156.98" y="-89.67" font-family="Times,serif" font-size="14.00">(Retriever + LLM + Prompt)</text>
</g>
<!-- F&#45;&gt;H -->
<g id="edge7" class="edge">
<title>F&#45;&gt;H</title>
<path fill="none" stroke="black" d="M156.98,-163.62C156.98,-156.01 156.98,-146.88 156.98,-138"/>
<polygon fill="black" stroke="black" points="160.48,-137.8 156.98,-127.8 153.48,-137.8 160.48,-137.8"/>
</g>
<!-- G&#45;&gt;F -->
<g id="edge6" class="edge">
<title>G&#45;&gt;F</title>
<path fill="none" stroke="black" d="M156.98,-237.57C156.98,-229.87 156.98,-220.71 156.98,-212.16"/>
<polygon fill="black" stroke="black" points="160.48,-212.15 156.98,-202.15 153.48,-212.15 160.48,-212.15"/>
</g>
<!-- I -->
<g id="node9" class="node">
<title>I</title>
<polygon fill="lightgreen" stroke="lightgreen" points="254.48,-38 59.48,-38 59.48,0 254.48,0 254.48,-38"/>
<text text-anchor="middle" x="156.98" y="-22.8" font-family="Times,serif" font-size="14.00">Q&amp;A Output</text>
<text text-anchor="middle" x="156.98" y="-7.8" font-family="Times,serif" font-size="14.00">(Answer User Questions)</text>
</g>
<!-- H&#45;&gt;I -->
<g id="edge8" class="edge">
<title>H&#45;&gt;I</title>
<path fill="none" stroke="black" d="M156.98,-73.72C156.98,-65.53 156.98,-56.46 156.98,-48.14"/>
<polygon fill="black" stroke="black" points="160.48,-48.12 156.98,-38.12 153.48,-48.12 160.48,-48.12"/>
</g>
</g>
</svg>
