<?xml version="1.0" encoding="UTF-8" standalone="no"?>
<!DOCTYPE svg PUBLIC "-//W3C//DTD SVG 1.1//EN"
 "http://www.w3.org/Graphics/SVG/1.1/DTD/svg11.dtd">
<!-- Generated by graphviz version 2.43.0 (0)
 -->
<!-- Title: RAG_Information_Flow Pages: 1 -->
<svg width="2298pt" height="62pt"
 viewBox="0.00 0.00 2297.86 61.74" xmlns="http://www.w3.org/2000/svg" xmlns:xlink="http://www.w3.org/1999/xlink">
<g id="graph0" class="graph" transform="scale(1 1) rotate(0) translate(4 57.74)">
<title>RAG_Information_Flow</title>
<polygon fill="white" stroke="transparent" points="-4,4 -4,-57.74 2293.86,-57.74 2293.86,4 -4,4"/>
<!-- A -->
<g id="node1" class="node">
<title>A</title>
<ellipse fill="lightgrey" stroke="lightgrey" cx="98.29" cy="-26.87" rx="98.08" ry="26.74"/>
<text text-anchor="middle" x="98.29" y="-30.67" font-family="Times,serif" font-size="14.00">MPI Mining Data</text>
<text text-anchor="middle" x="98.29" y="-15.67" font-family="Times,serif" font-size="14.00">(Raw Data Files)</text>
</g>
<!-- B -->
<g id="node2" class="node">
<title>B</title>
<polygon fill="lightblue" stroke="lightblue" points="468.58,-45.87 232.58,-45.87 232.58,-7.87 468.58,-7.87 468.58,-45.87"/>
<text text-anchor="middle" x="350.58" y="-30.67" font-family="Times,serif" font-size="14.00">Data Loading &amp; Preprocessing</text>
<text text-anchor="middle" x="350.58" y="-15.67" font-family="Times,serif" font-size="14.00">(PDF, CSV, etc.)</text>
</g>
<!-- A&#45;&gt;B -->
<g id="edge1" class="edge">
<title>A&#45;&gt;B</title>
<path fill="none" stroke="black" d="M196.77,-26.87C205.16,-26.87 213.72,-26.87 222.29,-26.87"/>
<polygon fill="black" stroke="black" points="222.35,-30.37 232.35,-26.87 222.35,-23.37 222.35,-30.37"/>
</g>
<!-- C -->
<g id="node3" class="node">
<title>C</title>
<polygon fill="lightyellow" stroke="lightyellow" points="719.58,-45.87 504.58,-45.87 504.58,-7.87 719.58,-7.87 719.58,-45.87"/>
<text text-anchor="middle" x="612.08" y="-30.67" font-family="Times,serif" font-size="14.00">Data Embedding</text>
<text text-anchor="middle" x="612.08" y="-15.67" font-family="Times,serif" font-size="14.00">(HuggingFace Embeddings)</text>
</g>
<!-- B&#45;&gt;C -->
<g id="edge2" class="edge">
<title>B&#45;&gt;C</title>
<path fill="none" stroke="black" d="M468.8,-26.87C477.2,-26.87 485.68,-26.87 494.08,-26.87"/>
<polygon fill="black" stroke="black" points="494.28,-30.37 504.28,-26.87 494.28,-23.37 494.28,-30.37"/>
</g>
<!-- D -->
<g id="node4" class="node">
<title>D</title>
<ellipse fill="lightgreen" stroke="lightgreen" cx="901.24" cy="-26.87" rx="145.83" ry="26.74"/>
<text text-anchor="middle" x="901.24" y="-30.67" font-family="Times,serif" font-size="14.00">FAISS Vector Store</text>
<text text-anchor="middle" x="901.24" y="-15.67" font-family="Times,serif" font-size="14.00">(Store &amp; Retrieve Vectors)</text>
</g>
<!-- C&#45;&gt;D -->
<g id="edge3" class="edge">
<title>C&#45;&gt;D</title>
<path fill="none" stroke="black" d="M719.6,-26.87C727.97,-26.87 736.53,-26.87 745.14,-26.87"/>
<polygon fill="black" stroke="black" points="745.27,-30.37 755.27,-26.87 745.27,-23.37 745.27,-30.37"/>
</g>
<!-- E -->
<g id="node5" class="node">
<title>E</title>
<polygon fill="lightpink" stroke="lightpink" points="1246.9,-45.87 1082.9,-45.87 1082.9,-7.87 1246.9,-7.87 1246.9,-45.87"/>
<text text-anchor="middle" x="1164.9" y="-30.67" font-family="Times,serif" font-size="14.00">Retriever Setup</text>
<text text-anchor="middle" x="1164.9" y="-15.67" font-family="Times,serif" font-size="14.00">(Query Vector Store)</text>
</g>
<!-- D&#45;&gt;E -->
<g id="edge4" class="edge">
<title>D&#45;&gt;E</title>
<path fill="none" stroke="black" d="M1047.23,-26.87C1055.86,-26.87 1064.41,-26.87 1072.73,-26.87"/>
<polygon fill="black" stroke="black" points="1072.75,-30.37 1082.75,-26.87 1072.74,-23.37 1072.75,-30.37"/>
</g>
<!-- G -->
<g id="node7" class="node">
<title>G</title>
<polygon fill="lightcyan" stroke="lightcyan" points="1514.9,-45.87 1282.9,-45.87 1282.9,-7.87 1514.9,-7.87 1514.9,-45.87"/>
<text text-anchor="middle" x="1398.9" y="-30.67" font-family="Times,serif" font-size="14.00">Prompt Handling</text>
<text text-anchor="middle" x="1398.9" y="-15.67" font-family="Times,serif" font-size="14.00">(LangChain Prompt Template)</text>
</g>
<!-- E&#45;&gt;G -->
<g id="edge5" class="edge">
<title>E&#45;&gt;G</title>
<path fill="none" stroke="black" d="M1247.05,-26.87C1255.31,-26.87 1263.84,-26.87 1272.43,-26.87"/>
<polygon fill="black" stroke="black" points="1272.54,-30.37 1282.54,-26.87 1272.54,-23.37 1272.54,-30.37"/>
</g>
<!-- F -->
<g id="node6" class="node">
<title>F</title>
<polygon fill="lightcoral" stroke="lightcoral" points="1708.9,-45.87 1550.9,-45.87 1550.9,-7.87 1708.9,-7.87 1708.9,-45.87"/>
<text text-anchor="middle" x="1629.9" y="-30.67" font-family="Times,serif" font-size="14.00">HuggingFace LLM</text>
<text text-anchor="middle" x="1629.9" y="-15.67" font-family="Times,serif" font-size="14.00">(Generate Answers)</text>
</g>
<!-- H -->
<g id="node8" class="node">
<title>H</title>
<ellipse fill="lightgrey" stroke="lightgrey" cx="1901.88" cy="-26.87" rx="156.96" ry="26.74"/>
<text text-anchor="middle" x="1901.88" y="-30.67" font-family="Times,serif" font-size="14.00">RAG Chain Execution</text>
<text text-anchor="middle" x="1901.88" y="-15.67" font-family="Times,serif" font-size="14.00">(Retriever + LLM + Prompt)</text>
</g>
<!-- F&#45;&gt;H -->
<g id="edge7" class="edge">
<title>F&#45;&gt;H</title>
<path fill="none" stroke="black" d="M1708.99,-26.87C1717.25,-26.87 1725.86,-26.87 1734.66,-26.87"/>
<polygon fill="black" stroke="black" points="1734.66,-30.37 1744.66,-26.87 1734.66,-23.37 1734.66,-30.37"/>
</g>
<!-- G&#45;&gt;F -->
<g id="edge6" class="edge">
<title>G&#45;&gt;F</title>
<path fill="none" stroke="black" d="M1515.07,-26.87C1523.63,-26.87 1532.17,-26.87 1540.52,-26.87"/>
<polygon fill="black" stroke="black" points="1540.6,-30.37 1550.6,-26.87 1540.6,-23.37 1540.6,-30.37"/>
</g>
<!-- I -->
<g id="node9" class="node">
<title>I</title>
<polygon fill="lightgreen" stroke="lightgreen" points="2289.86,-45.87 2094.86,-45.87 2094.86,-7.87 2289.86,-7.87 2289.86,-45.87"/>
<text text-anchor="middle" x="2192.36" y="-30.67" font-family="Times,serif" font-size="14.00">Q&amp;A Output</text>
<text text-anchor="middle" x="2192.36" y="-15.67" font-family="Times,serif" font-size="14.00">(Answer User Questions)</text>
</g>
<!-- H&#45;&gt;I -->
<g id="edge8" class="edge">
<title>H&#45;&gt;I</title>
<path fill="none" stroke="black" d="M2058.94,-26.87C2067.53,-26.87 2076.06,-26.87 2084.42,-26.87"/>
<polygon fill="black" stroke="black" points="2084.51,-30.37 2094.51,-26.87 2084.51,-23.37 2084.51,-30.37"/>
</g>
</g>
</svg>
